# xmcd
#
# Track frame offsets: 
#        150
#        17354
#        42966
#        70266
#        93235
#
# Disc length: 1578 seconds
#
# Revision: 0
# Processed by: cddbd v1.5.2PL0 Copyright (c) Steve Scherf et al.
# Submitted via: ExactAudioCopy v0.99pb4
#
DISCID=32062805
DTITLE=Geschmacksverstärker - Sunny Side
DYEAR=2008
DGENRE=Blues
TTITLE0=Time Is Tight (booker t and the mg's)
TTITLE1=Sunny Side (harold conrad, lee loeb)
TTITLE2=Green Onions (booker t and the mg's)
TTITLE3=Before You Acuse Me (elias mc daniel)
TTITLE4=Jlück jehabt
EXTD=
EXTT0=
EXTT1=
EXTT2=
EXTT3=
EXTT4=
PLAYORDER=
